<svg xmlns="http://www.w3.org/2000/svg" xmlns:xlink="http://www.w3.org/1999/xlink" width="64" zoomAndPan="magnify" viewBox="0 0 48 48" height="64" preserveAspectRatio="xMidYMid meet" version="1.0"><defs><clipPath id="4fb10c3777"><path d="M 14 2 L 47.507812 2 L 47.507812 30 L 14 30 Z M 14 2 " clip-rule="nonzero"/></clipPath></defs><path fill="#ffffff" d="M 4.324219 30.289062 C 4.367188 30.386719 4.417969 30.480469 4.472656 30.570312 C 4.496094 30.625 4.53125 30.679688 4.5625 30.730469 C 4.609375 30.828125 4.664062 30.925781 4.714844 31.019531 L 5.015625 31.523438 C 5.070312 31.617188 5.125 31.710938 5.1875 31.800781 C 5.292969 31.980469 5.417969 32.15625 5.527344 32.335938 C 5.574219 32.410156 5.621094 32.484375 5.675781 32.5625 C 5.886719 32.886719 6.078125 33.160156 6.285156 33.421875 C 6.429688 33.621094 6.574219 33.8125 6.730469 34.003906 C 6.78125 34.078125 6.839844 34.152344 6.894531 34.222656 L 7.316406 34.734375 C 7.367188 34.796875 7.417969 34.863281 7.472656 34.925781 C 7.660156 35.152344 7.859375 35.367188 8.058594 35.589844 C 8.058594 35.59375 8.066406 35.597656 8.070312 35.605469 C 8.316406 35.914062 8.582031 36.1875 8.871094 36.433594 L 8.878906 36.441406 C 9.03125 36.597656 9.183594 36.753906 9.347656 36.90625 L 9.539062 37.089844 C 9.753906 37.289062 9.964844 37.488281 10.1875 37.675781 C 10.191406 37.675781 10.195312 37.679688 10.199219 37.683594 L 10.308594 37.777344 C 10.5 37.949219 10.699219 38.117188 10.898438 38.273438 L 11.136719 38.472656 C 11.300781 38.605469 11.46875 38.726562 11.636719 38.855469 L 11.894531 39.054688 C 12.074219 39.1875 12.261719 39.316406 12.445312 39.449219 C 12.511719 39.496094 12.578125 39.542969 12.644531 39.585938 L 12.703125 39.632812 L 13.238281 39.984375 L 13.46875 40.136719 C 13.75 40.316406 14.027344 40.484375 14.308594 40.652344 C 14.386719 40.691406 14.46875 40.734375 14.542969 40.78125 C 14.75 40.898438 14.964844 41.019531 15.171875 41.128906 C 15.285156 41.195312 15.40625 41.25 15.523438 41.308594 C 15.667969 41.390625 15.816406 41.46875 15.96875 41.546875 C 16.011719 41.5625 16.042969 41.574219 16.078125 41.59375 L 16.085938 41.585938 C 16.148438 41.613281 16.210938 41.644531 16.269531 41.675781 C 16.5 41.789062 16.738281 41.898438 16.988281 42.007812 C 17.03125 42.027344 17.082031 42.046875 17.132812 42.070312 C 17.40625 42.191406 17.683594 42.308594 17.96875 42.417969 C 18.03125 42.4375 18.101562 42.46875 18.167969 42.496094 C 18.425781 42.589844 18.691406 42.691406 18.957031 42.785156 L 19.050781 42.820312 C 19.34375 42.917969 19.632812 43.015625 19.929688 43.105469 C 20 43.125 20.070312 43.148438 20.144531 43.167969 C 20.445312 43.257812 20.742188 43.367188 21.046875 43.425781 C 40.683594 46.984375 46.390625 31.675781 46.390625 31.675781 C 41.597656 37.890625 33.089844 39.527344 25.03125 37.703125 C 24.734375 37.636719 24.4375 37.539062 24.132812 37.453125 C 23.585938 37.292969 23.222656 37.179688 22.867188 37.050781 L 23.046875 37.109375 L 22.929688 37.0625 C 22.667969 36.972656 22.417969 36.875 22.164062 36.777344 C 22.117188 36.757812 22.046875 36.730469 21.976562 36.707031 L 21.953125 36.699219 C 21.675781 36.589844 21.402344 36.472656 21.128906 36.351562 C 21.070312 36.332031 21.019531 36.308594 20.960938 36.285156 C 20.460938 36.0625 20.234375 35.957031 20.003906 35.84375 L 20.269531 35.960938 C 20.199219 35.929688 20.136719 35.898438 20.066406 35.863281 C 19.886719 35.777344 19.707031 35.683594 19.53125 35.59375 C 19.367188 35.515625 19.25 35.453125 19.136719 35.390625 L 19.171875 35.410156 C 18.957031 35.292969 18.742188 35.167969 18.523438 35.054688 C 18.457031 35.007812 18.382812 34.96875 18.308594 34.925781 C 17.898438 34.6875 17.625 34.515625 17.351562 34.34375 L 17.46875 34.414062 C 17.378906 34.355469 17.304688 34.308594 17.234375 34.257812 L 17.246094 34.265625 C 17.011719 34.117188 16.824219 33.996094 16.640625 33.867188 C 16.574219 33.824219 16.515625 33.777344 16.449219 33.730469 C 16.207031 33.5625 16.023438 33.433594 15.84375 33.296875 L 15.886719 33.328125 C 15.808594 33.265625 15.722656 33.203125 15.636719 33.140625 C 15.46875 33.007812 15.296875 32.882812 15.128906 32.746094 L 14.902344 32.566406 C 14.660156 32.371094 14.457031 32.199219 14.257812 32.027344 C 14.242188 32.007812 14.21875 31.988281 14.195312 31.972656 L 13.53125 31.371094 L 13.339844 31.191406 C 13.183594 31.03125 13.023438 30.878906 12.863281 30.722656 L 12.675781 30.53125 C 12.476562 30.335938 12.285156 30.136719 12.097656 29.929688 L 12.085938 29.917969 L 12.054688 29.890625 C 11.851562 29.667969 11.652344 29.445312 11.457031 29.214844 C 11.402344 29.15625 11.355469 29.09375 11.300781 29.03125 L 10.867188 28.503906 C 10.71875 28.316406 10.503906 28.039062 10.296875 27.757812 L 10.21875 27.648438 C 5.75 21.578125 4.132812 13.203125 7.710938 6.328125 L 4.550781 10.320312 C 0.488281 16.128906 0.992188 23.683594 4.097656 29.851562 C 4.167969 30.003906 4.246094 30.144531 4.324219 30.289062 Z M 4.324219 30.289062 " fill-opacity="1" fill-rule="nonzero"/><path fill="#000000" d="M 18.003906 21.921875 C 17.996094 21.910156 17.992188 21.898438 17.984375 21.890625 C 17.976562 21.882812 17.972656 21.875 17.964844 21.867188 Z M 18.003906 21.921875 " fill-opacity="1" fill-rule="nonzero"/><g clip-path="url(#4fb10c3777)"><path fill="#ffffff" d="M 20.140625 24.425781 L 20.3125 24.601562 C 20.53125 24.808594 20.753906 25.015625 20.980469 25.21875 L 21.011719 25.242188 C 21.238281 25.445312 21.496094 25.660156 21.761719 25.863281 L 21.804688 25.894531 C 21.867188 25.941406 21.925781 25.992188 21.988281 26.035156 C 22.253906 26.242188 22.523438 26.4375 22.804688 26.636719 L 22.835938 26.652344 C 22.953125 26.738281 23.078125 26.816406 23.210938 26.902344 C 23.265625 26.933594 23.328125 26.980469 23.382812 27.015625 C 23.585938 27.144531 23.785156 27.265625 23.992188 27.390625 C 24.023438 27.402344 24.050781 27.421875 24.082031 27.433594 C 24.253906 27.539062 24.441406 27.640625 24.621094 27.734375 C 24.683594 27.769531 24.746094 27.800781 24.808594 27.835938 C 24.9375 27.898438 25.066406 27.964844 25.1875 28.03125 L 25.25 28.058594 C 25.507812 28.183594 25.769531 28.300781 26.027344 28.417969 C 26.09375 28.445312 26.148438 28.464844 26.203125 28.492188 C 26.414062 28.582031 26.632812 28.671875 26.84375 28.75 C 26.941406 28.785156 27.03125 28.820312 27.121094 28.851562 C 27.3125 28.921875 27.519531 28.988281 27.710938 29.058594 L 27.980469 29.144531 C 28.257812 29.230469 28.542969 29.34375 28.835938 29.386719 C 44 31.882812 47.511719 20.269531 47.511719 20.269531 C 44.351562 24.792969 38.234375 26.949219 31.71875 25.265625 C 31.324219 25.164062 31.039062 25.078125 30.753906 24.988281 L 30.863281 25.019531 C 30.769531 24.992188 30.691406 24.964844 30.601562 24.9375 C 30.402344 24.871094 30.199219 24.800781 30.003906 24.730469 L 29.730469 24.628906 C 29.515625 24.542969 29.296875 24.460938 29.089844 24.371094 C 29.023438 24.339844 28.964844 24.324219 28.917969 24.292969 C 28.648438 24.171875 28.378906 24.054688 28.117188 23.929688 L 27.722656 23.722656 L 27.496094 23.609375 C 27.320312 23.519531 27.15625 23.421875 26.988281 23.324219 C 26.941406 23.300781 26.902344 23.28125 26.863281 23.257812 L 26.871094 23.257812 C 26.667969 23.132812 26.457031 23.007812 26.261719 22.882812 C 26.199219 22.84375 26.140625 22.800781 26.078125 22.761719 L 25.679688 22.503906 C 25.40625 22.3125 25.136719 22.109375 24.863281 21.910156 C 24.800781 21.855469 24.742188 21.808594 24.683594 21.757812 C 21.816406 19.515625 19.558594 16.453125 18.484375 12.984375 C 17.355469 9.378906 17.605469 5.332031 19.554688 2.050781 L 17.15625 5.429688 C 14.210938 9.636719 14.378906 15.261719 16.671875 19.710938 C 17.089844 20.53125 17.515625 21.226562 17.984375 21.886719 C 18.417969 22.511719 18.898438 23.242188 19.480469 23.742188 C 19.6875 23.976562 19.910156 24.199219 20.140625 24.425781 Z M 20.140625 24.425781 " fill-opacity="1" fill-rule="nonzero"/></g><path fill="#000000" d="M 6.292969 33.433594 L 6.285156 33.421875 L 6.273438 33.40625 Z M 6.292969 33.433594 " fill-opacity="1" fill-rule="nonzero"/><path fill="#000000" d="M 14.242188 32.011719 L 14.261719 32.03125 Z M 14.242188 32.011719 " fill-opacity="1" fill-rule="nonzero"/><path fill="#ffffff" d="M 27.757812 1.773438 C 26.019531 4.308594 25.855469 7.457031 27.050781 10.253906 C 28.320312 13.226562 30.917969 15.558594 33.945312 16.660156 C 34.070312 16.710938 34.191406 16.75 34.320312 16.796875 L 34.488281 16.847656 C 34.664062 16.902344 34.839844 16.96875 35.023438 17.007812 C 43.398438 18.613281 45.664062 12.730469 46.273438 11.863281 C 44.28125 14.710938 40.9375 15.394531 36.835938 14.40625 C 36.433594 14.304688 36.101562 14.199219 35.785156 14.078125 L 35.847656 14.101562 C 35.363281 13.929688 34.972656 13.769531 34.59375 13.585938 L 34.664062 13.617188 C 33.882812 13.234375 33.210938 12.820312 32.585938 12.347656 C 28.917969 9.574219 26.652344 4.296875 29.042969 0 Z M 27.757812 1.773438 " fill-opacity="1" fill-rule="nonzero"/></svg>