<svg xmlns="http://www.w3.org/2000/svg" xmlns:xlink="http://www.w3.org/1999/xlink" width="64" zoomAndPan="magnify" viewBox="0 0 48 48" height="64" preserveAspectRatio="xMidYMid meet" version="1.0"><defs><clipPath id="033970d61d"><path d="M 0.488281 0 L 47.507812 0 L 47.507812 47.019531 L 0.488281 47.019531 Z M 0.488281 0 " clip-rule="nonzero"/></clipPath></defs><g clip-path="url(#033970d61d)"><path fill="#ffffff" d="M 24 47.019531 C 36.984375 47.019531 47.511719 36.492188 47.511719 23.511719 C 47.511719 10.527344 36.984375 0 24 0 C 11.015625 0 0.488281 10.527344 0.488281 23.511719 C 0.488281 36.492188 11.015625 47.019531 24 47.019531 Z M 13.050781 13.242188 C 16.085938 10.402344 20.308594 8.226562 24.203125 6.839844 C 30.757812 4.511719 37.683594 5.886719 38.746094 10.0625 L 38.601562 9.933594 C 39.628906 14.046875 36.074219 18.957031 31.519531 20.71875 C 27.464844 22.304688 24.085938 22.039062 22.703125 21.601562 C 21.117188 21.070312 20.203125 20.042969 19.96875 19.453125 C 19.882812 19.21875 19.734375 18.835938 19.96875 18.71875 C 20.117188 18.628906 20.175781 18.660156 20.585938 19.101562 C 20.96875 19.511719 22.46875 20.628906 25.347656 20.304688 C 32.902344 19.453125 37.425781 13.605469 35.988281 10.460938 C 34.988281 8.257812 29.199219 7.257812 21.9375 10.875 C 13.09375 15.28125 12.59375 18.921875 12.535156 20.304688 C 12.328125 24.097656 17.238281 26.09375 19.882812 28.945312 C 19.96875 29.003906 20.027344 29.0625 20.085938 29.152344 C 20.878906 28.828125 21.996094 28.679688 23.761719 28.648438 C 28.050781 28.59375 30.460938 31.410156 30.375 33.9375 C 30.285156 35.9375 28.460938 36.761719 28.136719 36.820312 C 27.90625 36.851562 27.753906 36.851562 27.726562 36.675781 C 27.699219 36.554688 27.785156 36.496094 28.082031 36.320312 C 28.375 36.144531 29.226562 35.527344 29.402344 34.46875 C 29.578125 33.410156 28.757812 30.824219 24.640625 30.355469 C 23.171875 30.175781 22.027344 30.292969 21.054688 30.558594 C 21.765625 32.117188 21.910156 35.289062 20.265625 37.761719 C 18.558594 40.285156 15.386719 41.847656 12.300781 40.992188 C 11.300781 40.730469 9.773438 38.671875 11.09375 35.789062 C 12.328125 33.054688 17.597656 30.414062 18.316406 30.058594 L 18.316406 30.046875 C 15.875 27.945312 9.9375 25.113281 9.101562 20.78125 C 8.867188 19.550781 9.4375 16.613281 13.050781 13.242188 Z M 13.050781 13.242188 " fill-opacity="1" fill-rule="nonzero"/></g><path fill="#ffffff" d="M 13.816406 38.714844 C 14.636719 39.191406 16.546875 38.625 17.914062 37.136719 C 18.363281 36.648438 18.726562 36.121094 19 35.550781 C 19.050781 35.441406 19.105469 35.324219 19.152344 35.207031 L 19.28125 34.855469 C 19.632812 33.789062 19.671875 32.605469 19.328125 31.34375 L 19.117188 31.460938 L 19.117188 31.46875 C 19.117188 31.46875 16.667969 32.625 14.960938 34.425781 C 13.375 36.101562 12.9375 38.203125 13.816406 38.714844 Z M 13.816406 38.714844 " fill-opacity="1" fill-rule="nonzero"/></svg>